<?xml version="1.0" standalone="no"?>
<!DOCTYPE svg PUBLIC "-//W3C//DTD SVG 20010904//EN"
 "http://www.w3.org/TR/2001/REC-SVG-20010904/DTD/svg10.dtd">
<svg version="1.0" xmlns="http://www.w3.org/2000/svg"
 width="18570.000000pt" height="18570.000000pt" viewBox="0 0 18570.000000 18570.000000"
 preserveAspectRatio="xMidYMid meet">
<metadata>
Created by potrace 1.16, written by Peter Selinger 2001-2019
</metadata>
<g transform="translate(0.000000,18570.000000) scale(0.100000,-0.100000)"
fill="#000000" stroke="none">
<path d="M0 92850 l0 -92850 92850 0 92850 0 0 92850 0 92850 -92850 0 -92850
0 0 -92850z m62574 80535 l1607 -2350 1438 -1445 c2071 -2082 2309 -2325 2857
-2920 3609 -3922 6583 -8622 8759 -13840 1583 -3798 2767 -7904 3510 -12175
494 -2843 729 -5211 795 -8025 15 -621 12 -2174 -5 -2875 -92 -3774 -468
-7715 -1220 -12764 -47 -316 -84 -575 -83 -577 2 -1 575 99 1273 222 l1270
224 370 35 c590 56 1097 107 2245 224 2278 233 3377 328 4570 395 1519 86
3244 92 5515 21 1114 -36 2887 -104 3375 -130 5359 -291 10900 -1438 16075
-3328 5189 -1895 9816 -4482 13490 -7541 576 -480 1025 -877 1600 -1416 121
-114 355 -328 520 -475 3617 -3239 7060 -6522 9696 -9245 1536 -1588 2827
-3032 3945 -4415 431 -533 396 -484 469 -656 434 -1010 756 -1909 1099 -3069
292 -990 536 -1946 1042 -4090 107 -454 237 -998 289 -1210 64 -266 9006
-33481 10630 -39490 177 -654 466 -1689 925 -3310 765 -2703 930 -3302 1414
-5145 536 -2043 828 -3284 1041 -4435 276 -1492 380 -2597 336 -3580 l-12
-265 -69 -220 c-139 -444 -215 -657 -332 -935 -325 -767 -714 -1357 -1242
-1885 -443 -442 -918 -784 -1561 -1123 -325 -171 -606 -298 -1160 -522 l-290
-118 -225 -11 c-458 -22 -530 -23 -760 -12 -810 40 -1547 171 -3545 631 -2179
502 -3722 886 -7185 1786 -5257 1368 -10281 2730 -23860 6470 -12952 3568
-17872 4902 -22515 6104 -2506 649 -3501 887 -5045 1206 l-135 28 -265 170
c-801 511 -1378 933 -2161 1581 -1723 1426 -4358 3948 -7144 6840 -3066 3181
-6220 6700 -7886 8795 -1913 2407 -3685 5178 -5235 8190 -2973 5773 -4990
12188 -5768 18340 -206 1623 -319 3127 -357 4745 -13 555 -7 2269 11 2880 104
3670 452 7385 1230 13141 27 202 47 370 45 373 -3 2 -150 -28 -328 -67 -4162
-925 -9878 -1287 -16282 -1032 -2378 95 -5231 312 -6762 515 -7880 1045
-17184 4965 -23026 9702 -158 128 -406 322 -550 430 -1549 1163 -3149 2491
-4867 4042 -1238 1119 -1952 1864 -2549 2661 -150 200 -155 206 -238 258 -354
222 -693 542 -1129 1067 -82 99 -178 217 -214 262 -48 62 -69 81 -82 77 -63
-20 -1283 -333 -1286 -330 -2 2 139 266 312 587 l316 582 -58 71 c-32 39 -411
505 -841 1035 -645 794 -781 966 -769 976 7 7 930 637 2052 1400 l2038 1388
313 349 c197 219 353 403 421 496 343 470 795 996 1533 1781 96 102 371 395
610 651 1510 1611 2682 2833 5036 5250 3595 3692 6837 6970 12370 12509 6273
6279 11336 11296 15945 15801 2167 2118 3287 3203 5375 5205 751 720 1353
1279 1847 1713 150 133 415 397 1130 1130 919 941 966 991 2813 3000 1033
1123 1879 2041 1881 2040 1 -2 725 -1060 1608 -2353z"/>
<path d="M60215 169555 c-11 -2 -177 -18 -370 -35 -192 -17 -360 -34 -372 -38
-12 -4 -464 -459 -1003 -1012 -768 -787 -981 -1011 -985 -1035 -3 -16 -19
-178 -35 -359 -32 -350 -39 -595 -20 -731 34 -238 148 -538 413 -1087 l95
-196 409 -514 c778 -977 1564 -1924 2763 -3328 1303 -1527 1971 -2326 2531
-3030 1549 -1946 2703 -3701 3817 -5805 203 -385 659 -1301 865 -1740 2990
-6370 4340 -12834 4247 -20330 -26 -2086 -146 -4110 -385 -6495 -283 -2820
-696 -5782 -1460 -10455 -282 -1726 -294 -1809 -375 -2640 -57 -585 -95 -862
-160 -1181 -29 -141 -103 -425 -155 -594 -44 -142 -46 -159 -130 -830 -149
-1189 -315 -2441 -679 -5121 -499 -3662 -745 -5634 -951 -7623 -264 -2552
-393 -4403 -466 -6691 -17 -534 -23 -2313 -10 -2845 58 -2325 311 -4700 761
-7116 1238 -6655 3812 -13202 7338 -18659 830 -1285 1825 -2667 2766 -3840
2436 -3039 7153 -8132 10786 -11646 2178 -2106 3886 -3587 5040 -4367 l195
-131 460 -101 c1144 -250 3004 -711 5455 -1350 3892 -1016 8838 -2358 19440
-5275 5913 -1627 7459 -2052 9970 -2740 11576 -3172 18183 -4916 22145 -5845
2072 -486 3190 -703 3790 -736 l121 -7 194 83 c884 374 1324 715 1669 1293
106 176 227 452 328 742 l45 130 -6 305 c-13 769 -161 1764 -497 3340 -461
2161 -1086 4550 -2484 9485 -290 1025 -441 1562 -571 2035 -193 700 -10598
39323 -10649 39530 -30 118 -151 620 -269 1115 -525 2195 -750 3078 -1057
4149 -265 920 -565 1812 -819 2430 l-81 199 -172 211 c-1045 1287 -2472 2864
-4216 4656 -227 234 -772 782 -1210 1219 -2314 2309 -4905 4747 -7826 7367
-209 187 -468 423 -575 525 -3727 3518 -8700 6422 -14510 8471 -4510 1590
-9418 2614 -14045 2928 -585 39 -1101 64 -2100 100 -3352 120 -5044 139 -6555
75 -1039 -45 -1788 -106 -4160 -340 -1071 -106 -2026 -198 -2744 -266 l-549
-51 -1460 -257 -1460 -257 -49 -185 c-95 -365 -172 -707 -313 -1394 -119 -579
-181 -840 -305 -1285 l-79 -285 -86 -1213 c-48 -667 -84 -1216 -81 -1220 8 -7
3864 292 4431 344 204 18 836 78 1405 133 3179 307 4823 438 6475 516 1152 54
2386 60 3065 15 294 -20 754 -70 768 -84 1 -2 -3886 -3926 -8640 -8721 -6481
-6536 -8655 -8735 -8691 -8788 -291 -433 -477 -939 -543 -1477 -23 -188 -23
-560 0 -740 71 -555 255 -1019 565 -1425 92 -121 306 -337 419 -425 258 -200
572 -365 877 -458 306 -94 691 -152 908 -138 847 55 2217 959 4172 2751 770
706 1713 1635 2795 2755 618 639 1420 1491 2720 2890 1135 1221 1196 1285
2570 2665 548 550 1650 1662 2449 2470 1841 1861 5198 5218 6081 6081 1148
1122 2093 2034 2107 2034 5 0 89 -29 188 -65 575 -209 1105 -343 2780 -705
1032 -223 1558 -355 2170 -546 746 -231 1421 -524 1874 -811 24 -15 23 -16
-195 -235 -308 -309 -2006 -1977 -3959 -3888 -8214 -8039 -13090 -12879
-17060 -16935 -4137 -4226 -6718 -7054 -7498 -8217 -239 -356 -275 -447 -337
-848 -43 -282 -53 -615 -25 -855 88 -762 502 -1305 1277 -1675 569 -271 1222
-426 2598 -614 l105 -14 630 627 c779 777 29848 29722 30181 30053 l240 239
2310 -1477 c1270 -812 2315 -1482 2323 -1490 12 -10 -25 -57 -230 -291 -1687
-1928 -4253 -4613 -7948 -8316 -3371 -3378 -5442 -5419 -12221 -12042 -3571
-3489 -5146 -5036 -6725 -6605 -1256 -1248 -1447 -1431 -2365 -2260 -173 -157
-443 -402 -600 -544 -1463 -1333 -2304 -2240 -2887 -3111 -772 -1156 -961
-2144 -579 -3025 199 -458 616 -936 1141 -1307 527 -372 1139 -484 1837 -337
828 174 1820 750 2923 1698 864 742 1657 1550 3185 3246 1017 1129 925 1032
2275 2395 1857 1875 3006 3045 6535 6655 5909 6045 8208 8379 11160 11330
3668 3669 6095 6018 7990 7736 570 516 1455 1288 1471 1282 4 -2 155 -143 336
-314 337 -319 543 -510 928 -859 1096 -994 1405 -1338 1646 -1830 290 -595
366 -1330 274 -2665 -21 -306 -95 -1078 -150 -1570 -36 -320 -78 -862 -204
-2594 -88 -1204 -163 -2192 -168 -2196 -19 -18 -613 -139 -982 -200 -787 -131
-1537 -201 -2571 -241 -472 -19 -1746 -16 -2905 5 -1481 27 -2186 16 -2860
-44 -1220 -108 -2067 -390 -2725 -908 -117 -92 -392 -368 -480 -480 -492 -632
-777 -1406 -909 -2467 -57 -460 -72 -784 -71 -1519 l1 -621 -283 -5074 -283
-5074 -90 -29 c-470 -148 -1373 -237 -2885 -283 -809 -24 -1514 -34 -3245 -44
-2804 -17 -3554 -26 -4505 -56 -1613 -51 -2570 -148 -3060 -311 -353 -118
-677 -388 -947 -789 -852 -1266 -1205 -3980 -1038 -7975 52 -1225 129 -2304
287 -4022 29 -317 50 -579 48 -581 -3 -2 -2345 -133 -5205 -291 -2860 -158
-5214 -288 -5232 -289 -28 -2 -56 19 -229 168 -1012 869 -2084 1920 -3029
2970 -3552 3944 -6485 8995 -8522 14675 -957 2668 -1695 5415 -2168 8070 -415
2329 -661 4885 -762 7915 -22 662 -25 2852 -5 3495 52 1697 146 3041 312 4490
80 690 88 792 100 1205 10 363 14 448 31 700 7 98 140 1031 385 2695 522 3540
521 3533 684 4820 105 830 200 1532 256 1905 177 1169 355 2027 580 2785 l55
185 -10 85 c-45 367 -6 971 130 2030 66 521 167 1201 434 2935 654 4247 927
6285 1175 8760 452 4521 530 8595 230 12095 -236 2756 -806 5999 -1570 8930
-1979 7592 -5436 14218 -10169 19490 -701 781 -767 849 -3649 3742 l-1093
1098 -426 196 c-660 303 -718 323 -953 329 -80 2 -154 2 -165 0z m74525
-81466 c749 -622 1343 -1196 1751 -1689 418 -506 716 -1010 939 -1590 169
-438 297 -903 515 -1870 378 -1676 566 -2429 851 -3398 41 -139 189 -627 330
-1085 818 -2661 1416 -4845 2594 -9472 400 -1571 592 -2322 790 -3090 825
-3195 1426 -5354 2100 -7540 237 -768 291 -949 350 -1180 149 -579 185 -1003
114 -1350 -35 -172 -121 -387 -222 -558 -33 -56 -1509 -1563 -8772 -8955
-5752 -5854 -8738 -8886 -8749 -8884 -9 2 -5362 1420 -11896 3152 -6534 1732
-12060 3196 -12280 3254 -678 178 -1238 315 -2505 611 -758 177 -1283 312
-1690 435 -1367 413 -2336 979 -3545 2074 -188 170 -694 659 -833 806 l-134
140 34 14 c290 121 795 234 1323 296 578 67 1204 98 2570 125 2214 44 3154
128 4110 366 1328 332 2125 955 2446 1911 l52 153 60 2815 c74 3494 78 3203
-73 4955 -111 1280 -115 1359 -115 2080 1 473 4 644 18 810 29 354 59 629 71
641 13 13 414 90 696 133 798 123 1830 203 3090 241 622 18 745 20 1725 35
1072 16 1637 29 2000 46 545 25 1053 15 1950 -41 176 -11 397 -25 490 -30
1410 -85 2291 -40 3068 155 889 225 1608 710 2065 1394 168 253 291 621 392
1179 127 695 199 1467 265 2847 31 644 59 1840 85 3575 43 2925 90 4184 196
5265 79 806 202 1438 343 1768 l20 47 498 0 c771 0 1276 25 2528 125 1627 130
2297 165 3230 165 1458 1 2378 58 3215 201 950 161 1720 437 2290 819 439 294
789 692 983 1115 l46 100 196 3490 c107 1920 198 3510 201 3533 5 40 7 42 22
29 9 -7 100 -83 202 -168z"/>
<path d="M56555 155930 c-309 -103 -848 -417 -1415 -825 -2014 -1447 -5335
-4500 -10509 -9660 -3078 -3070 -5647 -5693 -12001 -12250 -2613 -2696 -4891
-5039 -5685 -5845 -2602 -2643 -3850 -3882 -4990 -4956 -342 -322 -958 -884
-969 -884 -4 0 -821 679 -1818 1510 l-1812 1510 -270 89 c-586 194 -765 239
-988 248 -225 9 -365 -18 -1068 -206 -159 -43 -229 -66 -240 -80 -8 -10 -240
-269 -515 -576 l-500 -556 -223 -379 -223 -379 85 -490 c82 -473 84 -490 70
-536 -31 -104 -11 -276 51 -435 326 -846 1754 -2358 4190 -4436 1006 -859
2272 -1879 3230 -2605 149 -113 351 -272 451 -354 402 -333 869 -693 1389
-1071 2283 -1664 5001 -3192 8000 -4497 4315 -1878 9024 -3210 12871 -3642
702 -78 2372 -215 3419 -280 2261 -139 4163 -192 6485 -182 1197 6 1498 10
2345 37 4308 136 7951 606 10543 1361 150 43 274 79 275 79 1 0 2 179 3 398 1
410 13 627 54 987 82 700 259 1434 475 1975 l46 115 101 1003 c55 552 98 1005
96 1008 -7 7 -556 -14 -823 -31 -972 -63 -2045 -184 -4860 -550 -3840 -499
-5337 -654 -7235 -747 -351 -17 -1725 -17 -2005 0 -478 29 -878 74 -1207 133
l-177 32 147 153 c81 84 4019 4075 8752 8869 6048 6127 8616 8734 8643 8777
22 33 66 110 99 172 354 655 451 1431 267 2145 -165 642 -537 1190 -1059 1561
-455 324 -1021 501 -1610 504 -141 0 -179 -3 -260 -23 -938 -232 -2619 -1503
-5275 -3990 -1715 -1606 -3688 -3573 -6600 -6581 -986 -1019 -1534 -1587
-3680 -3820 -2282 -2374 -3187 -3303 -4399 -4515 -1483 -1483 -2296 -2246
-2978 -2796 l-120 -97 -41 13 c-1609 481 -6894 2070 -6899 2074 -11 9 25386
25400 25842 25837 1641 1570 2451 2494 2997 3419 293 496 472 945 544 1369 27
155 37 465 19 603 -54 446 -241 814 -584 1159 -233 232 -474 405 -834 598
-485 259 -786 346 -1209 346 -256 1 -468 -28 -718 -96 -804 -221 -1721 -794
-2770 -1733 -255 -228 -426 -391 -784 -745 -555 -552 -1038 -1066 -2031 -2166
-261 -289 -607 -669 -769 -845 -647 -701 -3000 -3032 -8321 -8240 -1905 -1865
-3433 -3363 -4345 -4260 -5868 -5771 -9727 -9699 -12429 -12650 -192 -209
-353 -380 -358 -380 -11 0 -4716 3327 -4717 3335 -2 12 20072 20073 20474
20461 248 239 830 801 1295 1249 4433 4275 7341 7197 9286 9330 1656 1816
2595 3040 2785 3629 47 146 69 314 76 567 6 243 -3 369 -43 570 -72 366 -233
706 -479 1012 -424 526 -1158 940 -1980 1117 -140 30 -411 75 -448 75 -7 0
-66 -18 -132 -40z"/>
</g>
</svg>
